<?xml version="1.0" encoding="UTF-8" standalone="no"?>
<!DOCTYPE svg PUBLIC "-//W3C//DTD SVG 1.1//EN" "http://www.w3.org/Graphics/SVG/1.1/DTD/svg11.dtd">
<svg width="100%" height="100%" viewBox="0 0 205 205" version="1.1" xmlns="http://www.w3.org/2000/svg" xmlns:xlink="http://www.w3.org/1999/xlink" xml:space="preserve" xmlns:serif="http://www.serif.com/" style="fill-rule:evenodd;clip-rule:evenodd;stroke-linejoin:round;stroke-miterlimit:2;">
    <g transform="matrix(1.33333,0,0,1.33333,0,0)">
        <g id="アートボード1" transform="matrix(0.999073,0,0,1.10228,-10.9399,-20.6265)">
            <rect x="10.95" y="18.713" width="153.342" height="138.985" style="fill:none;"/>
            <g id="g1041" transform="matrix(1.00109,0,0,0.907214,-0.219736,0.369845)">
                <g id="レイヤー-1" serif:id="レイヤー 1">
                    <g id="g10411" serif:id="g1041">
                        <g id="g845">
                        </g>
                        <g id="g1512" transform="matrix(0.708544,0,0,0.692317,-135.332,8.42139)">
                            <path id="path879" d="M275.364,214.331L275.364,201L249.046,201L249.046,187.67L235.887,187.67L235.887,174.34L209.57,174.34L209.57,161.009L222.729,161.009L222.729,147.679L209.57,147.679L209.57,134.349L222.729,134.349L222.729,107.688L235.887,107.688L235.887,81.027L249.046,81.027L249.046,67.697L262.205,67.697L262.205,54.367L275.364,54.367L275.364,41.036L288.522,41.036L288.522,54.367L301.681,54.367L301.681,67.697L341.157,67.697L341.157,54.367L354.316,54.367L354.316,41.036L367.475,41.036L367.475,54.367L380.633,54.367L380.633,81.027L393.792,81.027L393.792,94.358L406.951,94.358L406.951,134.349L420.109,134.349L420.109,147.679L406.951,147.679L406.951,161.009L420.109,161.009L420.109,174.34L393.792,174.34L393.792,187.67L367.475,187.67L367.475,201L354.316,201L354.316,214.331L275.364,214.331ZM341.157,201L341.157,187.67L354.316,187.67L354.316,174.34L380.633,174.34L380.633,161.009L393.792,161.009L393.792,147.679L380.633,147.679L380.633,134.349L393.792,134.349L393.792,107.688L380.633,107.688L380.633,94.358L367.475,94.358L367.475,54.367L354.316,54.367L354.316,81.027L288.522,81.027L288.522,54.367L275.364,54.367L275.364,81.027L262.205,81.027L262.205,94.358L249.046,94.358L249.046,121.018L235.887,121.018L235.887,134.349L249.046,134.349L249.046,147.679L235.887,147.679L235.887,161.009L249.046,161.009L249.046,174.34L262.205,174.34L262.205,187.67L275.364,187.67L275.364,201L341.157,201ZM288.522,147.679L288.522,134.349L301.681,134.349L301.681,121.018L314.84,121.018L314.84,134.349L327.998,134.349L327.998,147.679L314.84,147.679L314.84,134.349L301.681,134.349L301.681,147.679L288.522,147.679ZM262.205,134.349L262.205,121.018L275.364,121.018L275.364,134.349L262.205,134.349ZM341.157,134.349L341.157,121.018L354.316,121.018L354.316,134.349L341.157,134.349Z" style="fill-rule:nonzero;"/>
                            <g id="text849">
                            </g>
                            <g id="text853">
                            </g>
                        </g>
                    </g>
                </g>
            </g>
        </g>
    </g>
</svg>
